<svg width="91" height="26" viewBox="0 0 91 26" fill="none" xmlns="http://www.w3.org/2000/svg">
<line x1="-8.74228e-08" y1="13" x2="80" y2="13" stroke="#383C47" stroke-width="2"/>
<path d="M79.7071 1.29289L79 0.585787L77.5858 2L78.2929 2.70711L79.7071 1.29289ZM88.8995 13.3137C89.29 13.7042 89.9232 13.7042 90.3137 13.3137C90.7042 12.9232 90.7042 12.29 90.3137 11.8995L88.8995 13.3137ZM78.2929 2.70711L88.8995 13.3137L90.3137 11.8995L79.7071 1.29289L78.2929 2.70711Z" fill="#383C47"/>
<path d="M78.2929 22.8996L77.5858 23.6067L79 25.0209L79.7071 24.3138L78.2929 22.8996ZM90.3137 13.7072C90.7042 13.3167 90.7042 12.6835 90.3137 12.293C89.9232 11.9025 89.29 11.9025 88.8995 12.293L90.3137 13.7072ZM79.7071 24.3138L90.3137 13.7072L88.8995 12.293L78.2929 22.8996L79.7071 24.3138Z" fill="#383C47"/>
</svg>
