<svg width="91" height="26" viewBox="0 0 91 26" fill="none" xmlns="http://www.w3.org/2000/svg">
<line x1="91" y1="13" x2="11" y2="13" stroke="#383C47" stroke-width="2"/>
<path d="M11.2929 24.7071L12 25.4142L13.4142 24L12.7071 23.2929L11.2929 24.7071ZM2.1005 12.6863C1.70998 12.2958 1.07681 12.2958 0.68629 12.6863C0.295766 13.0768 0.295766 13.71 0.68629 14.1005L2.1005 12.6863ZM12.7071 23.2929L2.1005 12.6863L0.68629 14.1005L11.2929 24.7071L12.7071 23.2929Z" fill="#383C47"/>
<path d="M12.7071 3.10042L13.4142 2.39332L12 0.979105L11.2929 1.68621L12.7071 3.10042ZM0.686292 12.2928C0.295768 12.6833 0.295768 13.3165 0.686292 13.707C1.07682 14.0976 1.70998 14.0976 2.10051 13.707L0.686292 12.2928ZM11.2929 1.68621L0.686292 12.2928L2.10051 13.707L12.7071 3.10042L11.2929 1.68621Z" fill="#383C47"/>
</svg>
